# Blender v2.93.4 OBJ File: 'Keyboard.blend'
# www.blender.org
mtllib Key.mtl
o a0_key.001_Cube.001
v -0.948594 -0.117433 0.194890
v -0.948594 0.084171 0.194890
v -0.948594 -0.117433 -0.194890
v -0.948594 0.084171 -0.194890
v 0.948594 -0.117433 0.194890
v 0.948594 0.084171 0.194890
v 0.948594 -0.117433 -0.194890
v 0.948594 0.084171 -0.194890
v -0.948594 0.118208 0.194890
v -0.941693 0.125109 0.187989
v -0.941693 0.125109 -0.187989
v -0.948594 0.118208 -0.194890
v 0.948594 0.125109 -0.187989
v 0.948594 0.118208 -0.194890
v 0.948594 0.118208 0.194890
v 0.948594 0.125109 0.187989
v 0.972397 0.125109 -0.187989
v 0.972397 0.125109 0.187989
v 0.979298 0.086759 -0.192302
v 0.976710 0.084171 -0.194890
v 0.979298 0.086759 0.192302
v 0.976710 0.084171 0.194890
v 0.979298 0.118208 -0.192302
v 0.976710 0.118208 -0.194890
v 0.977803 0.119702 -0.193396
v 0.976710 0.118208 0.194890
v 0.979298 0.118208 0.192302
v 0.977803 0.119702 0.193396
vt 0.375000 0.000000
vt 0.625000 0.000000
vt 0.625000 0.250000
vt 0.375000 0.250000
vt 0.625000 0.500000
vt 0.375000 0.500000
vt 0.625000 0.750000
vt 0.375000 0.750000
vt 0.625000 1.000000
vt 0.375000 1.000000
vt 0.125000 0.500000
vt 0.125000 0.750000
vt 0.625000 0.504426
vt 0.625000 0.745574
vt 0.625000 0.745574
vt 0.625000 0.504426
vt 0.625000 0.750000
vt 0.625000 1.000000
vt 0.625000 0.750000
vt 0.625000 0.750000
vt 0.874091 0.504426
vt 0.874091 0.745574
vt 0.625000 0.250000
vt 0.625000 0.500000
vt 0.625000 0.500000
vt 0.625000 0.500000
vt 0.625000 0.500958
vt 0.625000 0.004426
vt 0.625000 0.245574
vt 0.625000 0.000000
vt 0.625000 0.250909
vt 0.625000 0.500000
vt 0.625000 0.750000
vt 0.625000 0.999091
vt 0.625000 0.749042
vt 0.625000 0.748340
vt 0.625000 0.501660
vt 0.625000 0.750000
vt 0.625000 0.501660
vt 0.625000 0.748340
vn -1.0000 0.0000 0.0000
vn 0.0000 0.0000 -1.0000
vn 1.0000 0.0000 0.0000
vn 0.0000 0.0000 1.0000
vn 0.0000 -1.0000 0.0000
vn 0.0000 1.0000 0.0000
vn 0.0000 0.7071 -0.7071
vn -0.7071 0.7071 0.0000
vn 0.0000 0.7071 0.7071
vn 0.7071 0.7071 0.0000
vn 0.6948 0.1861 -0.6947
vn 0.6948 0.1861 0.6947
vn 0.7071 -0.7071 0.0000
vn 0.7071 0.0000 -0.7071
vn 0.7071 0.0000 0.7071
usemtl None
s off
f 1/1/1 2/2/1 4/3/1 3/4/1
f 3/4/2 4/3/2 8/5/2 7/6/2
f 7/6/3 8/5/3 6/7/3 5/8/3
f 5/8/4 6/7/4 2/9/4 1/10/4
f 3/11/5 7/6/5 5/8/5 1/12/5
f 13/13/6 16/14/6 18/15/6 17/16/6
f 2/9/4 6/7/4 15/17/4 9/18/4
f 15/17/4 6/7/4 22/19/4 26/20/4
f 13/13/6 11/21/6 10/22/6 16/14/6
f 8/5/2 4/3/2 12/23/2 14/24/2
f 8/5/2 14/24/2 24/25/2 20/26/2
f 25/27/7 24/25/7 14/24/7 13/13/7 17/16/7
f 6/7/5 8/5/5 20/26/5 22/19/5
f 10/28/8 11/29/8 12/23/8 9/30/8
f 11/31/7 13/32/7 14/24/7 12/23/7
f 16/33/9 10/34/9 9/18/9 15/17/9
f 15/17/9 26/20/9 28/35/9 18/15/9 16/14/9
f 17/16/10 18/15/10 28/35/10 27/36/10 23/37/10 25/27/10
f 4/3/1 2/2/1 9/30/1 12/23/1
f 23/37/11 24/25/11 25/27/11
f 26/20/12 27/38/12 28/35/12
f 19/39/13 21/40/13 22/19/13 20/26/13
f 23/37/14 19/39/14 20/26/14 24/25/14
f 21/40/15 27/36/15 26/20/15 22/19/15
f 21/40/3 19/39/3 23/37/3 27/36/3
